<svg xmlns="http://www.w3.org/2000/svg" width="760" height="280" viewBox="0 0 760 280">
<rect width="100%" height="100%" fill="#ffffff"/>
<text x="24" y="34" font-family="Arial" font-size="22" font-weight="700" fill="#111827">Concentrated Recommendation Weights</text>
<text x="24" y="86" font-family="Arial" font-size="14" fill="#111827">NVDA</text>
<rect x="120" y="70" width="500.00" height="20" fill="#2563eb" rx="3"/>
<text x="630.00" y="86" font-family="Arial" font-size="14" fill="#111827">24.2%</text>
<text x="24" y="116" font-family="Arial" font-size="14" fill="#111827">ADI</text>
<rect x="120" y="100" width="483.00" height="20" fill="#16a34a" rx="3"/>
<text x="613.00" y="116" font-family="Arial" font-size="14" fill="#111827">23.4%</text>
<text x="24" y="146" font-family="Arial" font-size="14" fill="#111827">EXPE</text>
<rect x="120" y="130" width="431.86" height="20" fill="#dc2626" rx="3"/>
<text x="561.86" y="146" font-family="Arial" font-size="14" fill="#111827">20.9%</text>
<text x="24" y="176" font-family="Arial" font-size="14" fill="#111827">JHG</text>
<rect x="120" y="160" width="428.07" height="20" fill="#9333ea" rx="3"/>
<text x="558.07" y="176" font-family="Arial" font-size="14" fill="#111827">20.7%</text>
<text x="24" y="206" font-family="Arial" font-size="14" fill="#111827">MRVL</text>
<rect x="120" y="190" width="108.69" height="20" fill="#ea580c" rx="3"/>
<text x="238.69" y="206" font-family="Arial" font-size="14" fill="#111827">5.3%</text>
<text x="24" y="236" font-family="Arial" font-size="14" fill="#111827">CIEN</text>
<rect x="120" y="220" width="73.41" height="20" fill="#0891b2" rx="3"/>
<text x="203.41" y="236" font-family="Arial" font-size="14" fill="#111827">3.6%</text>
<text x="24" y="266" font-family="Arial" font-size="14" fill="#111827">MU</text>
<rect x="120" y="250" width="42.48" height="20" fill="#4f46e5" rx="3"/>
<text x="172.48" y="266" font-family="Arial" font-size="14" fill="#111827">2.1%</text>
</svg>