<svg xmlns="http://www.w3.org/2000/svg" width="720" height="420" viewBox="0 0 720 420">
<rect width="100%" height="100%" fill="#ffffff"/>
<text x="24" y="34" font-family="Arial" font-size="22" font-weight="700" fill="#111827">Main Recommendation Weights</text>
<path d="M 210.00 220.00 L 210.00 85.00 A 135.00 135.00 0 0 1 302.41 121.59 Z" fill="#2563eb" stroke="#ffffff" stroke-width="2"/>
<path d="M 210.00 220.00 L 302.41 121.59 A 135.00 135.00 0 0 1 344.19 205.23 Z" fill="#16a34a" stroke="#ffffff" stroke-width="2"/>
<path d="M 210.00 220.00 L 344.19 205.23 A 135.00 135.00 0 0 1 327.60 286.30 Z" fill="#dc2626" stroke="#ffffff" stroke-width="2"/>
<path d="M 210.00 220.00 L 327.60 286.30 A 135.00 135.00 0 0 1 282.90 333.63 Z" fill="#9333ea" stroke="#ffffff" stroke-width="2"/>
<path d="M 210.00 220.00 L 282.90 333.63 A 135.00 135.00 0 0 1 235.70 352.53 Z" fill="#ea580c" stroke="#ffffff" stroke-width="2"/>
<path d="M 210.00 220.00 L 235.70 352.53 A 135.00 135.00 0 0 1 192.72 353.89 Z" fill="#0891b2" stroke="#ffffff" stroke-width="2"/>
<path d="M 210.00 220.00 L 192.72 353.89 A 135.00 135.00 0 0 1 151.62 341.73 Z" fill="#4f46e5" stroke="#ffffff" stroke-width="2"/>
<path d="M 210.00 220.00 L 151.62 341.73 A 135.00 135.00 0 0 1 116.82 317.68 Z" fill="#65a30d" stroke="#ffffff" stroke-width="2"/>
<path d="M 210.00 220.00 L 116.82 317.68 A 135.00 135.00 0 0 1 92.69 286.81 Z" fill="#be123c" stroke="#ffffff" stroke-width="2"/>
<path d="M 210.00 220.00 L 92.69 286.81 A 135.00 135.00 0 0 1 78.46 250.38 Z" fill="#0f766e" stroke="#ffffff" stroke-width="2"/>
<path d="M 210.00 220.00 L 78.46 250.38 A 135.00 135.00 0 0 1 210.00 85.00 Z" fill="#7c3aed" stroke="#ffffff" stroke-width="2"/>
<rect x="400" y="70" width="14" height="14" fill="#2563eb"/>
<text x="424" y="82" font-family="Arial" font-size="14" fill="#111827">GOOGL 12.0%</text>
<rect x="400" y="94" width="14" height="14" fill="#16a34a"/>
<text x="424" y="106" font-family="Arial" font-size="14" fill="#111827">AMZN 11.3%</text>
<rect x="400" y="118" width="14" height="14" fill="#dc2626"/>
<text x="424" y="130" font-family="Arial" font-size="14" fill="#111827">GEV 9.9%</text>
<rect x="400" y="142" width="14" height="14" fill="#9333ea"/>
<text x="424" y="154" font-family="Arial" font-size="14" fill="#111827">TSM 7.8%</text>
<rect x="400" y="166" width="14" height="14" fill="#ea580c"/>
<text x="424" y="178" font-family="Arial" font-size="14" fill="#111827">VRT 6.0%</text>
<rect x="400" y="190" width="14" height="14" fill="#0891b2"/>
<text x="424" y="202" font-family="Arial" font-size="14" fill="#111827">TXN 5.1%</text>
<rect x="400" y="214" width="14" height="14" fill="#4f46e5"/>
<text x="424" y="226" font-family="Arial" font-size="14" fill="#111827">GLW 5.1%</text>
<rect x="400" y="238" width="14" height="14" fill="#65a30d"/>
<text x="424" y="250" font-family="Arial" font-size="14" fill="#111827">FIX 5.0%</text>
<rect x="400" y="262" width="14" height="14" fill="#be123c"/>
<text x="424" y="274" font-family="Arial" font-size="14" fill="#111827">FTI 4.6%</text>
<rect x="400" y="286" width="14" height="14" fill="#0f766e"/>
<text x="424" y="298" font-family="Arial" font-size="14" fill="#111827">LRCX 4.6%</text>
<rect x="400" y="310" width="14" height="14" fill="#7c3aed"/>
<text x="424" y="322" font-family="Arial" font-size="14" fill="#111827">OTHER 28.6%</text>
</svg>