<svg xmlns="http://www.w3.org/2000/svg" width="720" height="420" viewBox="0 0 720 420">
<rect width="100%" height="100%" fill="#ffffff"/>
<text x="24" y="34" font-family="Arial" font-size="22" font-weight="700" fill="#111827">Main Current Operating Weights</text>
<path d="M 210.00 220.00 L 210.00 85.00 A 135.00 135.00 0 0 1 344.97 216.95 Z" fill="#2563eb" stroke="#ffffff" stroke-width="2"/>
<path d="M 210.00 220.00 L 344.97 216.95 A 135.00 135.00 0 0 1 311.08 309.49 Z" fill="#16a34a" stroke="#ffffff" stroke-width="2"/>
<path d="M 210.00 220.00 L 311.08 309.49 A 135.00 135.00 0 0 1 252.74 348.06 Z" fill="#dc2626" stroke="#ffffff" stroke-width="2"/>
<path d="M 210.00 220.00 L 252.74 348.06 A 135.00 135.00 0 0 1 188.64 353.30 Z" fill="#9333ea" stroke="#ffffff" stroke-width="2"/>
<path d="M 210.00 220.00 L 188.64 353.30 A 135.00 135.00 0 0 1 136.87 333.48 Z" fill="#ea580c" stroke="#ffffff" stroke-width="2"/>
<path d="M 210.00 220.00 L 136.87 333.48 A 135.00 135.00 0 0 1 106.23 306.35 Z" fill="#0891b2" stroke="#ffffff" stroke-width="2"/>
<path d="M 210.00 220.00 L 106.23 306.35 A 135.00 135.00 0 0 1 86.22 273.89 Z" fill="#4f46e5" stroke="#ffffff" stroke-width="2"/>
<path d="M 210.00 220.00 L 86.22 273.89 A 135.00 135.00 0 0 1 77.29 244.74 Z" fill="#65a30d" stroke="#ffffff" stroke-width="2"/>
<path d="M 210.00 220.00 L 77.29 244.74 A 135.00 135.00 0 0 1 75.07 215.64 Z" fill="#be123c" stroke="#ffffff" stroke-width="2"/>
<path d="M 210.00 220.00 L 75.07 215.64 A 135.00 135.00 0 0 1 78.11 191.19 Z" fill="#0f766e" stroke="#ffffff" stroke-width="2"/>
<path d="M 210.00 220.00 L 78.11 191.19 A 135.00 135.00 0 0 1 210.00 85.00 Z" fill="#7c3aed" stroke="#ffffff" stroke-width="2"/>
<rect x="400" y="70" width="14" height="14" fill="#2563eb"/>
<text x="424" y="82" font-family="Arial" font-size="14" fill="#111827">CASH 24.6%</text>
<rect x="400" y="94" width="14" height="14" fill="#16a34a"/>
<text x="424" y="106" font-family="Arial" font-size="14" fill="#111827">MU 11.9%</text>
<rect x="400" y="118" width="14" height="14" fill="#dc2626"/>
<text x="424" y="130" font-family="Arial" font-size="14" fill="#111827">LRCX 8.3%</text>
<rect x="400" y="142" width="14" height="14" fill="#9333ea"/>
<text x="424" y="154" font-family="Arial" font-size="14" fill="#111827">GOOG 7.7%</text>
<rect x="400" y="166" width="14" height="14" fill="#ea580c"/>
<text x="424" y="178" font-family="Arial" font-size="14" fill="#111827">AMAT 6.6%</text>
<rect x="400" y="190" width="14" height="14" fill="#0891b2"/>
<text x="424" y="202" font-family="Arial" font-size="14" fill="#111827">BE 4.8%</text>
<rect x="400" y="214" width="14" height="14" fill="#4f46e5"/>
<text x="424" y="226" font-family="Arial" font-size="14" fill="#111827">KO 4.5%</text>
<rect x="400" y="238" width="14" height="14" fill="#65a30d"/>
<text x="424" y="250" font-family="Arial" font-size="14" fill="#111827">ETR 3.6%</text>
<rect x="400" y="262" width="14" height="14" fill="#be123c"/>
<text x="424" y="274" font-family="Arial" font-size="14" fill="#111827">VRT 3.4%</text>
<rect x="400" y="286" width="14" height="14" fill="#0f766e"/>
<text x="424" y="298" font-family="Arial" font-size="14" fill="#111827">FTI 2.9%</text>
<rect x="400" y="310" width="14" height="14" fill="#7c3aed"/>
<text x="424" y="322" font-family="Arial" font-size="14" fill="#111827">OTHER 21.6%</text>
</svg>