<svg xmlns="http://www.w3.org/2000/svg" width="760" height="550" viewBox="0 0 760 550">
<rect width="100%" height="100%" fill="#ffffff"/>
<text x="24" y="34" font-family="Arial" font-size="22" font-weight="700" fill="#111827">Main Current Operating Weights</text>
<text x="24" y="86" font-family="Arial" font-size="14" fill="#111827">CASH</text>
<rect x="120" y="70" width="500.00" height="20" fill="#2563eb" rx="3"/>
<text x="630.00" y="86" font-family="Arial" font-size="14" fill="#111827">26.0%</text>
<text x="24" y="116" font-family="Arial" font-size="14" fill="#111827">MU</text>
<rect x="120" y="100" width="168.72" height="20" fill="#16a34a" rx="3"/>
<text x="298.72" y="116" font-family="Arial" font-size="14" fill="#111827">8.8%</text>
<text x="24" y="146" font-family="Arial" font-size="14" fill="#111827">AMAT</text>
<rect x="120" y="130" width="165.52" height="20" fill="#dc2626" rx="3"/>
<text x="295.52" y="146" font-family="Arial" font-size="14" fill="#111827">8.6%</text>
<text x="24" y="176" font-family="Arial" font-size="14" fill="#111827">LRCX</text>
<rect x="120" y="160" width="108.41" height="20" fill="#9333ea" rx="3"/>
<text x="238.41" y="176" font-family="Arial" font-size="14" fill="#111827">5.6%</text>
<text x="24" y="206" font-family="Arial" font-size="14" fill="#111827">APH</text>
<rect x="120" y="190" width="89.94" height="20" fill="#ea580c" rx="3"/>
<text x="219.94" y="206" font-family="Arial" font-size="14" fill="#111827">4.7%</text>
<text x="24" y="236" font-family="Arial" font-size="14" fill="#111827">ETR</text>
<rect x="120" y="220" width="88.49" height="20" fill="#0891b2" rx="3"/>
<text x="218.49" y="236" font-family="Arial" font-size="14" fill="#111827">4.6%</text>
<text x="24" y="266" font-family="Arial" font-size="14" fill="#111827">VRT</text>
<rect x="120" y="250" width="82.58" height="20" fill="#4f46e5" rx="3"/>
<text x="212.58" y="266" font-family="Arial" font-size="14" fill="#111827">4.3%</text>
<text x="24" y="296" font-family="Arial" font-size="14" fill="#111827">VZ</text>
<rect x="120" y="280" width="72.06" height="20" fill="#65a30d" rx="3"/>
<text x="202.06" y="296" font-family="Arial" font-size="14" fill="#111827">3.8%</text>
<text x="24" y="326" font-family="Arial" font-size="14" fill="#111827">GOOG</text>
<rect x="120" y="310" width="72.00" height="20" fill="#be123c" rx="3"/>
<text x="202.00" y="326" font-family="Arial" font-size="14" fill="#111827">3.7%</text>
<text x="24" y="356" font-family="Arial" font-size="14" fill="#111827">KO</text>
<rect x="120" y="340" width="62.39" height="20" fill="#0f766e" rx="3"/>
<text x="192.39" y="356" font-family="Arial" font-size="14" fill="#111827">3.2%</text>
<text x="24" y="386" font-family="Arial" font-size="14" fill="#111827">ADI</text>
<rect x="120" y="370" width="58.89" height="20" fill="#7c3aed" rx="3"/>
<text x="188.89" y="386" font-family="Arial" font-size="14" fill="#111827">3.1%</text>
<text x="24" y="416" font-family="Arial" font-size="14" fill="#111827">FTI</text>
<rect x="120" y="400" width="57.39" height="20" fill="#ca8a04" rx="3"/>
<text x="187.39" y="416" font-family="Arial" font-size="14" fill="#111827">3.0%</text>
<text x="24" y="446" font-family="Arial" font-size="14" fill="#111827">SCCO</text>
<rect x="120" y="430" width="53.63" height="20" fill="#2563eb" rx="3"/>
<text x="183.63" y="446" font-family="Arial" font-size="14" fill="#111827">2.8%</text>
<text x="24" y="476" font-family="Arial" font-size="14" fill="#111827">COST</text>
<rect x="120" y="460" width="53.34" height="20" fill="#16a34a" rx="3"/>
<text x="183.34" y="476" font-family="Arial" font-size="14" fill="#111827">2.8%</text>
<text x="24" y="506" font-family="Arial" font-size="14" fill="#111827">PR</text>
<rect x="120" y="490" width="51.58" height="20" fill="#dc2626" rx="3"/>
<text x="181.58" y="506" font-family="Arial" font-size="14" fill="#111827">2.7%</text>
<text x="24" y="536" font-family="Arial" font-size="14" fill="#111827">OTHER</text>
<rect x="120" y="520" width="235.77" height="20" fill="#9333ea" rx="3"/>
<text x="365.77" y="536" font-family="Arial" font-size="14" fill="#111827">12.3%</text>
</svg>